# xmcd
#
# Track frame offsets:
#	150
#	13900
#	31507
#	43716
#	58849
#	78029
#	94460
#	109915
#	127397
#	140680
#	154576
#	173001
#	191280
#	207884
#	226328
#
# Disc length: 3249 seconds
#
# Revision: 0
# Processed by: cddbd v1.5.1PL2 Copyright (c) Steve Scherf et al.
# Submitted via: dBpowerAMP V4.0
#
DISCID=c70caf0f
DTITLE=Matt Weeks - Kingsway - Quiet Moments with God - Jazz Guitar
DYEAR=2005
DGENRE=Christian Worship
TTITLE0=Everything I Have (Acknowledge You)
TTITLE1=I will never be the same
TTITLE2=Take this bread
TTITLE3=Great is the darkness (Come Lord Jesus)
TTITLE4=When the way ahead is not clear (Could You)
TTITLE5=O my soul arise and bless your maker
TTITLE6=Image of Invisible God
TTITLE7=Sureley our God (Revealer of Mysteries)
TTITLE8=The Blessing
TTITLE9=All heaven declares
TTITLE10=All I am
TTITLE11=We crown You now
TTITLE12=I want to be out of my depth in Your love
TTITLE13=We bow down
TTITLE14=All around your throne
EXTD=
EXTT0=
EXTT1=
EXTT2=
EXTT3=
EXTT4=
EXTT5=
EXTT6=
EXTT7=
EXTT8=
EXTT9=
EXTT10=
EXTT11=
EXTT12=
EXTT13=
EXTT14=
PLAYORDER=
